<?xml version="1.0" standalone="no"?><!DOCTYPE svg PUBLIC "-//W3C//DTD SVG 1.1//EN" "http://www.w3.org/Graphics/SVG/1.1/DTD/svg11.dtd"><svg t="1542428533554" class="icon" style="" viewBox="0 0 1080 1024" version="1.1" xmlns="http://www.w3.org/2000/svg" p-id="6051" xmlns:xlink="http://www.w3.org/1999/xlink" width="210.9375" height="200"><defs><style type="text/css"></style></defs><path d="M579.597386 472.512418m-307.869281 0a307.869281 307.869281 0 1 0 615.738562 0 307.869281 307.869281 0 1 0-615.738562 0Z" fill="#E9EAEB" p-id="6052"></path><path d="M218.185621 872.742484v14.724183h562.196078v-548.810458h-14.724183L218.185621 872.742484z" fill="#FFFFFF" p-id="6053"></path><path d="M780.381699 900.852288h-562.196078c-8.031373 0-13.385621-5.354248-13.385621-13.385621v-14.724183c0-4.015686 1.338562-6.69281 4.015686-9.369935l547.471896-534.086274c2.677124-2.677124 5.354248-4.015686 9.369934-4.015687h14.724183c8.031373 0 13.385621 5.354248 13.385621 13.385621v548.810458c0 6.69281-5.354248 13.385621-13.385621 13.385621z m-543.456209-26.771242h530.070588V354.718954L236.92549 874.081046z" fill="#2A5082" p-id="6054"></path><path d="M700.067974 847.309804h26.771242v40.156863h-26.771242zM633.139869 847.309804h26.771242v40.156863h-26.771242zM566.211765 847.309804h26.771242v40.156863h-26.771242zM499.28366 847.309804h26.771242v40.156863h-26.771242zM432.355556 847.309804h26.771241v40.156863h-26.771241zM365.427451 847.309804h26.771242v40.156863h-26.771242zM298.499346 847.309804h26.771242v40.156863h-26.771242zM713.453595 807.152941h-281.098039v-32.12549l248.972549-248.972549h32.12549v281.098039z m-248.972549-26.771242h222.201307V558.180392L464.481046 780.381699z" fill="#2A5082" p-id="6055"></path><path d="M927.623529 766.996078v-575.581699c0-8.031373-5.354248-13.385621-13.385621-13.385621h-53.542483c-8.031373 0-13.385621 5.354248-13.385621 13.385621v575.581699l40.156863 80.313726 40.156862-80.313726z" fill="#A3D4FF" p-id="6056"></path><path d="M887.466667 876.75817l-53.542484-107.084967V191.414379c0-14.724183 12.047059-26.771242 26.771242-26.771242h53.542483c14.724183 0 26.771242 12.047059 26.771242 26.771242v578.258824l-53.542483 107.084967z m-26.771242-113.777778l26.771242 53.542484 26.771241-53.542484V191.414379h-53.542483V762.980392z" fill="#2A5082" p-id="6057"></path><path d="M847.309804 740.224837h80.313725v26.771241h-80.313725zM847.309804 231.571242h80.313725v26.771242h-80.313725z" fill="#2A5082" p-id="6058"></path><path d="M151.257516 137.871895h468.496732v562.196079h-468.496732z" fill="#FFFFFF" p-id="6059"></path><path d="M619.754248 713.453595h-468.496732c-8.031373 0-13.385621-5.354248-13.385621-13.385621v-562.196079c0-8.031373 5.354248-13.385621 13.385621-13.38562h468.496732c8.031373 0 13.385621 5.354248 13.385621 13.38562v562.196079c0 6.69281-5.354248 13.385621-13.385621 13.385621z m-455.111111-26.771242h441.72549v-535.424837h-441.72549v535.424837z" fill="#2A5082" p-id="6060"></path><path d="M204.8 191.414379h361.411765v455.111111h-361.411765z" fill="#FFFFFF" p-id="6061"></path><path d="M579.597386 659.911111h-388.183007v-481.882353h388.183007v481.882353z m-361.411765-26.771242h334.640523v-428.339869h-334.640523v428.339869z" fill="#2A5082" p-id="6062"></path><path d="M204.8 311.884967h361.411765v26.771242h-361.411765zM204.8 418.969935h361.411765v26.771241h-361.411765zM204.8 526.054902h240.941176v26.771242h-240.941176z" fill="#2A5082" p-id="6063"></path><path d="M311.884967 325.270588h26.771242v321.254902h-26.771242zM432.355556 325.270588h26.771241v321.254902h-26.771241z" fill="#2A5082" p-id="6064"></path><path d="M204.8 191.414379h361.411765v133.856209h-361.411765z" fill="#A3D4FF" p-id="6065"></path><path d="M579.597386 338.656209h-388.183007v-160.627451h388.183007v160.627451z m-361.411765-26.771242h334.640523v-107.084967h-334.640523v107.084967z" fill="#2A5082" p-id="6066"></path></svg>