<?xml version="1.0" standalone="no"?><!DOCTYPE svg PUBLIC "-//W3C//DTD SVG 1.1//EN" "http://www.w3.org/Graphics/SVG/1.1/DTD/svg11.dtd"><svg t="1542428040208" class="icon" style="" viewBox="0 0 1024 1024" version="1.1" xmlns="http://www.w3.org/2000/svg" p-id="791" xmlns:xlink="http://www.w3.org/1999/xlink" width="200" height="200"><defs><style type="text/css"></style></defs><path d="M494.4 960.2H386.8l35.9-537.7h35.8zM745.3 888.5h-71.7V530.1h35.8z" fill="#CCCCCC" p-id="792"></path><path d="M422.7 350.8m-35.8 0a35.8 35.8 0 1 0 71.6 0 35.8 35.8 0 1 0-71.6 0Z" fill="#3366CC" p-id="793"></path><path d="M673.6 458.4m-35.8 0a35.8 35.8 0 1 0 71.6 0 35.8 35.8 0 1 0-71.6 0Z" fill="#3366CC" p-id="794"></path><path d="M458.5 315l35.9-35.8L817 171.6h35.8L494.4 350.8zM709.4 422.5l71.7-35.8 143.4-35.9h35.9L745.3 458.4zM351 350.8l35.8 35.9-71.7 358.4-35.8 36.8 35.8-431.1zM637.7 492.3v36.8l-71.6 144.4h-35.9l71.7-181.2zM637.7 422.5h-35.8l-71.7-71.7h35.9l71.6 35.9zM386.8 315H351L64.2 99.9V64.1l358.5 215.1z" fill="#3366CC" p-id="795"></path></svg>